<?xml version="1.0" encoding="utf-8"?>
<!-- Generator: Adobe Illustrator 25.2.1, SVG Export Plug-In . SVG Version: 6.00 Build 0)  -->
<svg version="1.1" id="Layer_1" xmlns="http://www.w3.org/2000/svg" xmlns:xlink="http://www.w3.org/1999/xlink" x="0px" y="0px"
	 viewBox="0 0 260.4 93.8" style="enable-background:new 0 0 260.4 93.8;" xml:space="preserve">
<style type="text/css">
	.st0{fill:#FF120D;}
	.st1{fill:#FFFFFF;}
	.st2{enable-background:new    ;}
</style>
<path class="st0" d="M175.6,12.3h52.2c7.6,0,13.7,6.1,13.7,13.7v41.9c0,7.6-6.1,13.7-13.7,13.7h-52.2c-7.6,0-13.7-6.1-13.7-13.7V26
	C161.9,18.5,168.1,12.3,175.6,12.3z"/>
<path class="st1" d="M199.8,38.7c0,5.6-3.1,9.2-9.2,10.6c-1.9,0.4-3.8,0.9-5.6,1.6c-1.8,0.8-3.3,2.1-4.1,3.9h17.8v9.7h-25.4V59
	c0-3.7,2.3-7.2,7-10.3c3.9-2.6,5.9-5.9,5.9-9.9c0-1.3-0.3-2.6-0.9-3.8c-0.5-1.2-1.7-2-3-1.9c-1.8,0-3.2,1.5-3.2,3.2l0,0
	c0,1.4,1,2.5,3,3.2l-6.7,5c-1-0.7-1.8-1.7-2.4-2.7c-0.6-1-1-2.2-1-3.3c0.1-3.2,1.8-6.1,4.6-7.6c2.6-1.7,5.7-2.6,8.9-2.5
	c3.4-0.2,6.7,0.6,9.7,2.1C198.2,32.1,200,35.3,199.8,38.7z"/>
<path class="st1" d="M232,56.2c-1.3,0.3-2.6,0.5-4,0.5v7.9h-11.4v-7.9c-1.5-0.5-3.1-0.7-4.7-0.7c-1.4,0.1-2.7,0.3-4,0.6
	c-1.3,0.3-2.6,0.5-4,0.6c-0.9,0-1.8-0.2-2.6-0.7v-4.9l14.6-22.7h12.2v22.4c1.3,0,2.7-0.2,4-0.6L232,56.2z M216.6,51.3v-15l-9.7,15
	c0.8-0.1,1.6-0.3,2.5-0.5c0.8-0.2,1.6-0.3,2.5-0.3C213.4,50.5,215,50.7,216.6,51.3L216.6,51.3z"/>
<g class="st2">
	<path d="M30.7,42.9V27.1L24,42.9h-4.9V19.7h-1v-4.9h1H24v4.9v10.6l6.5-15.5h0.2h4.9v28.2H30.7z"/>
</g>
<g class="st2">
	<path d="M52,25.4v0.9v2.9c0,1.2-0.4,2.4-1.1,3.3c0.7,0.9,1.1,2,1.1,3.3v0.5v1.2c0,3.1-2.4,5.6-5.5,5.6h-2.4c-3.1,0-5.6-2.5-5.6-5.6
		v-0.9h4.2v0.1c0,1.2,0.9,2.1,2,2.1h0.9c1.2,0,2.1-1,2.1-2.1v0v-0.1c0-1.1-0.8-1.9-1.9-1.9h-3.1v-0.1v-3.9H46c1.1-0.1,1.9-0.9,1.9-2
		v-1.9v-0.3v-0.2c0-1.2-1-2.1-2.1-2.1h-0.9c-1.2,0-2,0.9-2,2.1v0.1h-4.2v-0.8c0-3.1,2.5-5.6,5.6-5.6h2.4C49.6,19.9,52,22.4,52,25.4z
		"/>
	<path d="M68.9,25.3v1v2.9c0,1.3-0.7,2.6-1.3,3.5c0.6,0.6,1.3,1.9,1.3,3.2v0.6v1.3c0,2.9-2.6,5.1-5.5,5.1h-3.9c-0.3,0-0.3,0-0.3,0
		h-4.2v-8.3h-0.7v-4.1h0.7V19.9h4.2c0,0,0,0,0.3,0h3.9C66.3,19.9,68.9,22.4,68.9,25.3z M64.8,25.9c0-1.3-1-1.9-1.9-1.9h-3.5v6.4h3.5
		c1,0,1.9-0.6,1.9-1.9v-2.2V25.9z M64.8,36.5c0-1-1-1.9-1.9-1.9h-3.5v4.5h3.5c1,0,1.9-1,1.9-2V36.5z"/>
	<path d="M72.2,35.4h-0.8v-4h0.8V19.9h0.7h3.3h9.5v4h-9.5v7.5h8v4h-8v3.5h9.5v4h-9.5h-4V35.4z"/>
	<path d="M88.1,37.4v-4v-5v-2.9c0-3.1,2.5-5.6,5.6-5.6h2.4c3.1,0,5.6,2.5,5.6,5.6v1.2h-4.2v-0.5c0-1.2-0.9-2.1-2.1-2.1h-0.9
		c-1.2,0-2.1,0.9-2.1,2.1v2.2v5v3.3c0,1.2,0.9,2.1,2.1,2.1h0.9c1.2,0,2.1-1,2.1-2.1v-0.5h4.2v1.3c0,3.1-2.5,5.6-5.6,5.6h-2.4
		C90.7,42.9,88.1,40.4,88.1,37.4z"/>
	<path d="M108.9,42.9v-19h-4.7v-4h4.7h4h4.7v4h-4.7v19H108.9z"/>
	<path d="M130.4,42.9v-13l-5.5,13h-4v-19H120v-4h0.9h4v4v8.7l5.3-12.7h0.2h4v23H130.4z"/>
	<path d="M146.1,19.9c0.3,0,0.3,0,0.3,0h4.1v10.6h0.7v4.1h-0.7v8.3h-4.1v-8.3h-3.5c-1,0-1.9,1-1.9,1.9v6.4h-4.1v-7
		c0-1.3,0.7-2.3,1.3-3.2c-0.6-1-1.3-2.2-1.3-3.5v-2.6v-1.2c0-2.9,2.6-5.5,5.4-5.5H146.1z M141,28.5c0,1.3,1,1.9,1.9,1.9h3.5V24h-3.5
		c-1,0-1.9,0.7-1.9,1.9v0.7V28.5z"/>
</g>
<g class="st2">
	<path d="M35.3,54.8v1.6v5.8c0,3.5-2.8,6.2-6.3,6.2h-2.3h-1.2c-0.7,0-1.5,0-1.5,0v8.2h-5.1v-8.2h-0.8v-4.6h0.8V48.6h3.5H29
		C32.5,48.6,35.3,51.3,35.3,54.8z M30.6,56c0-1.6-1.2-2.7-2.3-2.7h-4.3v10.6h1.5h1.2h1.6c1.2,0,2.3-1.2,2.3-2.4v-5V56z"/>
</g>
<g class="st2">
	<path d="M46.1,53.7c3.1,0,5.6,2.5,5.6,5.6v3v4.9v4c0,3-2.5,5.5-5.6,5.5h-2.3c-3.1,0-5.5-2.5-5.5-5.5v-4v-4.9v-3
		c0-3.1,2.4-5.6,5.5-5.6H46.1z M45.4,57.9h-1c-1.1,0-2.1,1-2.1,2.1v2.3v8.2c0,1.1,1,2.1,2.1,2.1h1c1.1,0,2.1-1,2.1-2.1v-3.3V60
		C47.5,58.9,46.5,57.9,45.4,57.9z"/>
	<path d="M54.1,71.2v-4v-5v-2.9c0-3.1,2.5-5.6,5.6-5.6h2.4c3.1,0,5.6,2.5,5.6,5.6v1.2h-4.2V60c0-1.2-0.9-2.1-2.1-2.1h-0.9
		c-1.2,0-2.1,0.9-2.1,2.1v2.2v5v3.3c0,1.2,0.9,2.1,2.1,2.1h0.9c1.2,0,2.1-1,2.1-2.1V70h4.2v1.3c0,3.1-2.5,5.6-5.6,5.6h-2.4
		C56.7,76.8,54.1,74.3,54.1,71.2z"/>
	<path d="M70.1,71.2v-4v-5v-2.9c0-3.1,2.5-5.6,5.6-5.6h2.4c3.1,0,5.6,2.5,5.6,5.6v1.2h-4.2V60c0-1.2-0.9-2.1-2.1-2.1h-0.9
		c-1.2,0-2.1,0.9-2.1,2.1v2.2v5v3.3c0,1.2,0.9,2.1,2.1,2.1h0.9c1.2,0,2.1-1,2.1-2.1V70h4.2v1.3c0,3.1-2.5,5.6-5.6,5.6h-2.4
		C72.7,76.8,70.1,74.3,70.1,71.2z"/>
	<path d="M96.5,76.8v-13l-5.5,13h-4v-19h-0.9v-4H87h4v4v8.7l5.3-12.7h0.2h4v23H96.5z"/>
	<path d="M113.3,76.8v-13l-5.5,13h-4v-19h-0.9v-4h0.9h4v4v8.7l5.3-12.7h0.2h4v23H113.3z"/>
</g>
</svg>
