<svg width="200" height="43" xmlns="http://www.w3.org/2000/svg" viewBox="0 0 349.08 74.49"><defs><style>.black-path{fill:#000;}.red-path{fill:#FF120D;}.white-path{fill:#fff;}</style></defs><g><g><path class="black-path" d="M39.09,56.17H25.56V28.34l-12,27.83H0V17.73H13.53V45.59l12-27.86H39.09Z"/><path class="black-path" d="M70.1,46.71q0,6-4.93,8.21c-2.19,1-5.6,1.45-10.25,1.45a20.13,20.13,0,0,1-8.08-1.45c-3-1.31-4.46-3.35-4.46-6.11a5.49,5.49,0,0,1,3.54-5.39l6,3.75A3,3,0,0,0,49.73,50c0,1.89,1.43,2.83,4.27,2.83h.14c1.75,0,2.93-.59,3.54-1.78a10.86,10.86,0,0,0,.73-4.6,8.45,8.45,0,0,0-.86-4.4c-.7-1.09-2-1.64-3.94-1.64H50.92V36.85h2.69q4.61,0,4.6-4.14,0-3.81-4.17-3.81a5.48,5.48,0,0,0-2.74.66,2.4,2.4,0,0,0-1.57,2.17A2.69,2.69,0,0,0,51.18,34L45.45,37q-1.17-1-1.17-4.2a6.44,6.44,0,0,1,3.6-5.91A14.31,14.31,0,0,1,55,25.22q12.18,0,12.18,6.9c0,3.59-1.77,5.7-5.32,6.31a10.15,10.15,0,0,1,5.85,2.5A7.48,7.48,0,0,1,70.1,46.71Z"/><path class="black-path" d="M100.65,46.9q0,5.46-3.42,7.56-2.69,1.71-8.6,1.71H72.86V25.42H86.72q11,0,11,6.57,0,5.72-5.39,6.57a10,10,0,0,1,6,2.56A7.6,7.6,0,0,1,100.65,46.9Zm-13.4-14c0-2.63-.84-3.94-2.5-3.94h-1v8h.85Q87.25,36.92,87.25,32.91Zm.85,13.34a9.35,9.35,0,0,0-.66-3.62c-.61-1.44-1.51-2.16-2.69-2.16h-1V52.62h.79Q88.11,52.62,88.1,46.25Z"/><path class="black-path" d="M126.6,56.17H103.41V25.42h22.34L126.6,29H114.25v2.5H126.6l-.85,3.67h-11.5V52.62H126.6Z"/><path class="black-path" d="M156.1,53.54q-3.27,3.56-10.86,3.55-8.1,0-12.62-4-4.71-4.28-4.71-12.29a14.93,14.93,0,0,1,5-11.56,17,17,0,0,1,12-4.4,18.57,18.57,0,0,1,7.1,1.25q4.14,1.71,4.14,5.12,0,2.9-3.35,2.89A5.88,5.88,0,0,1,148.08,32a2,2,0,0,0,1.38-1.75c0-1.13-1.08-1.69-3.24-1.69a5.62,5.62,0,0,0-5.09,2.75,11.71,11.71,0,0,0-1.46,5.9V44.3a9.37,9.37,0,0,0,2.11,6.55A7.63,7.63,0,0,0,148,53.54q3.61,0,3.61-3.15a4.15,4.15,0,0,0-.07-.79,4.07,4.07,0,0,1,3,1.18A3.71,3.71,0,0,1,156.1,53.54Z"/><path class="black-path" d="M184.55,29H176.4v27.2H165.56V29h-8.08V25.42h27.07Z"/><path class="black-path" d="M218.51,56.17H207.67V33.9l-9.52,22.27H187.31V25.42h10.84v22.4l9.5-22.4h10.86Z"/><path class="black-path" d="M250.11,56.17H239.27V49.66H238q-2.84,7.1-9.23,7.1a7.68,7.68,0,0,1-5.34-1.89,6.46,6.46,0,0,1-2.11-5.07,10.43,10.43,0,0,0,5.12,1.37,8.91,8.91,0,0,0,5.85-2.43,13.29,13.29,0,0,1-6.11-3,11.29,11.29,0,0,1-4.53-9.22,10.49,10.49,0,0,1,3.54-8.1,12.14,12.14,0,0,1,8.35-3h16.55Zm-10.84-10V29h-.4c-2.17,0-3.55.68-4.12,2a14.46,14.46,0,0,0-.54,5v2.89a10.84,10.84,0,0,0,.94,4.73,3.91,3.91,0,0,0,3.72,2.56Z"/><rect class="red-path" x="263.49" width="85.59" height="74.49" rx="14.71"/><path class="white-path" d="M304.22,28.31q0,9.07-9.86,11.43a34.79,34.79,0,0,0-6,1.84,8.84,8.84,0,0,0-4.46,4.14h19.25V56.17H275.84v-6q0-6,7.55-11.1c4.21-2.81,6.31-6.35,6.31-10.65a8.52,8.52,0,0,0-.92-4.07,3.41,3.41,0,0,0-3.22-2.1,3.48,3.48,0,0,0-3.48,3.48q0,2.23,3.22,3.55l-7.23,5.38a9.27,9.27,0,0,1-2.53-2.92,7.18,7.18,0,0,1-1.08-3.58q0-4.92,4.92-8.21a17.14,17.14,0,0,1,9.53-2.83q6.51,0,10.45,2.3Q304.22,22.28,304.22,28.31Z"/><path class="white-path" d="M338.84,47.17a18.41,18.41,0,0,1-4.27.52v8.48H322.29V47.69a15,15,0,0,0-5.06-.79,21.08,21.08,0,0,0-4.31.66,21,21,0,0,1-4.3.66,4.78,4.78,0,0,1-2.83-.79V42.11l15.64-24.38h13.14V41.91a13.77,13.77,0,0,0,4.27-.66Zm-16.55-5.26V25.77L311.87,41.89c.39,0,1.27-.21,2.64-.49a13.36,13.36,0,0,1,2.63-.34A14.11,14.11,0,0,1,322.29,41.91Z"/></g></g></svg>