<?xml version="1.0" encoding="utf-8"?>
<!-- Generator: Adobe Illustrator 25.2.1, SVG Export Plug-In . SVG Version: 6.00 Build 0)  -->
<svg version="1.1" id="Layer_1" xmlns="http://www.w3.org/2000/svg" xmlns:xlink="http://www.w3.org/1999/xlink" x="0px" y="0px"
	 viewBox="0 0 341.9 67.6" style="enable-background:new 0 0 341.9 67.6;" xml:space="preserve">
<style type="text/css">
	.st0{fill:#FF120D;}
	.st1{fill:#FFFFFF;}
</style>
<g>
	<g>
		<path class="st0" d="M281,13.3h32.2c4.7,0,8.4,3.8,8.4,8.4v25.8c0,4.7-3.8,8.4-8.4,8.4H281c-4.7,0-8.4-3.8-8.4-8.4V21.7
			C272.5,17.1,276.3,13.3,281,13.3z"/>
		<path class="st1" d="M295.9,29.5c0,3.5-1.9,5.6-5.6,6.5c-1.2,0.2-2.3,0.6-3.4,1.1c-1.1,0.5-2,1.3-2.6,2.4h11v6h-15.6V42
			c0-2.3,1.4-4.4,4.3-6.4c2.4-1.6,3.6-3.6,3.6-6.1c0-0.8-0.2-1.6-0.5-2.3c-0.3-0.7-1-1.2-1.8-1.2c-1.1,0-2,0.9-2,2c0,0,0,0,0,0
			c0,0.9,0.6,1.5,1.8,2l-4.1,3.1c-0.6-0.4-1.1-1-1.4-1.7c-0.4-0.6-0.6-1.3-0.6-2.1c0-1.9,0.9-3.4,2.8-4.7c1.6-1.1,3.5-1.6,5.5-1.6
			c2.5,0,4.5,0.4,6,1.3C294.9,25.5,295.9,27.2,295.9,29.5z"/>
		<path class="st1" d="M315.7,40.3c-0.8,0.2-1.6,0.3-2.4,0.3v4.9h-7v-4.9c-0.9-0.3-1.9-0.5-2.9-0.5c-0.8,0-1.7,0.2-2.5,0.4
			c-0.8,0.2-1.6,0.3-2.5,0.4c-0.6,0-1.1-0.1-1.6-0.5v-3l9-14h7.5v13.9c0.8,0,1.7-0.1,2.4-0.4L315.7,40.3z M306.2,37.3v-9.2l-6,9.2
			c0.2,0,0.7-0.1,1.5-0.3c0.5-0.1,1-0.2,1.5-0.2C304.3,36.8,305.3,37,306.2,37.3z"/>
	</g>
</g>
<g>
	<path d="M27.9,47.1V31.2l-6.7,15.9h-4.9V23.8h-1v-4.9h1h4.9v4.9v10.6l6.5-15.5h0.2h4.9v28.2H27.9z"/>
	<path d="M49.2,29.6v0.9v2.9c0,1.2-0.4,2.4-1.1,3.3c0.7,0.9,1.1,2,1.1,3.3v0.5v1.2c0,3.1-2.4,5.6-5.5,5.6h-2.4
		c-3.1,0-5.6-2.5-5.6-5.6v-0.9H40v0.1c0,1.2,0.9,2.1,2,2.1H43c1.2,0,2.1-1,2.1-2.1v0v-0.1c0-1.1-0.8-1.9-1.9-1.9H40v-0.1v-3.9h3.1
		c1.1-0.1,1.9-0.9,1.9-2v-1.9v-0.3v-0.2c0-1.2-1-2.1-2.1-2.1H42c-1.2,0-2,0.9-2,2.1v0.1h-4.2v-0.8c0-3.1,2.5-5.6,5.6-5.6h2.4
		C46.8,24,49.2,26.5,49.2,29.6z"/>
	<path d="M66.3,29.5v1v2.9c0,1.3-0.7,2.6-1.3,3.5c0.6,0.6,1.3,1.9,1.3,3.2v0.6V42c0,2.9-2.6,5.1-5.5,5.1h-3.9c-0.3,0-0.3,0-0.3,0
		h-4.2v-8.3h-0.7v-4.1h0.7V24h4.2c0,0,0,0,0.3,0h3.9C63.7,24,66.3,26.6,66.3,29.5z M62.1,30.1c0-1.3-1-1.9-1.9-1.9h-3.5v6.4h3.5
		c1,0,1.9-0.6,1.9-1.9v-2.2V30.1z M62.1,40.7c0-1-1-1.9-1.9-1.9h-3.5v4.5h3.5c1,0,1.9-1,1.9-2V40.7z"/>
	<path d="M69.7,39.6h-0.8v-4h0.8V24h0.7h3.3h9.5v4h-9.5v7.5h8v4h-8v3.5h9.5v4h-9.5h-4V39.6z"/>
	<path d="M85.8,41.5v-4v-5v-2.9c0-3.1,2.5-5.6,5.6-5.6h2.4c3.1,0,5.6,2.5,5.6,5.6v1.2h-4.2v-0.5c0-1.2-0.9-2.1-2.1-2.1h-0.9
		c-1.2,0-2.1,0.9-2.1,2.1v2.2v5v3.3c0,1.2,0.9,2.1,2.1,2.1H93c1.2,0,2.1-1,2.1-2.1v-0.5h4.2v1.3c0,3.1-2.5,5.6-5.6,5.6h-2.4
		C88.3,47.1,85.8,44.6,85.8,41.5z"/>
	<path d="M106.7,47.1v-19h-4.7v-4h4.7h4h4.7v4h-4.7v19H106.7z"/>
	<path d="M128.4,47.1v-13l-5.5,13h-4v-19H118v-4h0.9h4v4v8.7l5.3-12.7h0.2h4v23H128.4z"/>
	<path d="M144.3,24c0.3,0,0.3,0,0.3,0h4.1v10.6h0.7v4.1h-0.7v8.3h-4.1v-8.3H141c-1,0-1.9,1-1.9,1.9v6.4H135v-7
		c0-1.3,0.7-2.3,1.3-3.2c-0.6-1-1.3-2.2-1.3-3.5v-2.6v-1.3c0-2.9,2.6-5.5,5.4-5.5H144.3z M139.1,32.7c0,1.3,1,1.9,1.9,1.9h3.5v-6.4
		H141c-1,0-1.9,0.7-1.9,1.9v0.7V32.7z"/>
	<path d="M183.4,25.2v1.6v5.8c0,3.5-2.8,6.2-6.3,6.2h-2.3h-1.2c-0.7,0-1.5,0-1.5,0v8.2h-5.1v-8.2h-0.8v-4.6h0.8V18.9h3.5h6.6
		C180.6,18.9,183.4,21.7,183.4,25.2z M178.7,26.4c0-1.6-1.2-2.7-2.3-2.7H172v10.6h1.5h1.2h1.6c1.2,0,2.3-1.2,2.3-2.4v-5V26.4z"/>
	<path d="M194.2,24c3.1,0,5.6,2.5,5.6,5.6v3v4.9v4c0,3-2.5,5.5-5.6,5.5h-2.3c-3.1,0-5.5-2.5-5.5-5.5v-4v-4.9v-3
		c0-3.1,2.4-5.6,5.5-5.6H194.2z M193.5,28.3h-1c-1.1,0-2.1,1-2.1,2.1v2.3v8.2c0,1.1,1,2.1,2.1,2.1h1c1.1,0,2.1-1,2.1-2.1v-3.3v-7.2
		C195.6,29.2,194.6,28.3,193.5,28.3z"/>
	<path d="M202.4,41.5v-4v-5v-2.9c0-3.1,2.5-5.6,5.6-5.6h2.4c3.1,0,5.6,2.5,5.6,5.6v1.2h-4.2v-0.5c0-1.2-0.9-2.1-2.1-2.1h-0.9
		c-1.2,0-2.1,0.9-2.1,2.1v2.2v5v3.3c0,1.2,0.9,2.1,2.1,2.1h0.9c1.2,0,2.1-1,2.1-2.1v-0.5h4.2v1.3c0,3.1-2.5,5.6-5.6,5.6H208
		C204.9,47.1,202.4,44.6,202.4,41.5z"/>
	<path d="M218.6,41.5v-4v-5v-2.9c0-3.1,2.5-5.6,5.6-5.6h2.4c3.1,0,5.6,2.5,5.6,5.6v1.2h-4.2v-0.5c0-1.2-0.9-2.1-2.1-2.1h-0.9
		c-1.2,0-2.1,0.9-2.1,2.1v2.2v5v3.3c0,1.2,0.9,2.1,2.1,2.1h0.9c1.2,0,2.1-1,2.1-2.1v-0.5h4.2v1.3c0,3.1-2.5,5.6-5.6,5.6h-2.4
		C221.1,47.1,218.6,44.6,218.6,41.5z"/>
	<path d="M245.1,47.1v-13l-5.5,13h-4v-19h-0.9v-4h0.9h4v4v8.7l5.3-12.7h0.2h4v23H245.1z"/>
	<path d="M262.1,47.1v-13l-5.5,13h-4v-19h-0.9v-4h0.9h4v4v8.7l5.3-12.7h0.2h4v23H262.1z"/>
</g>
</svg>
